<mxfile host="app.diagrams.net" modified="2023-11-22T19:39:03.979Z" agent="Mozilla/5.0 (Windows NT 10.0; Win64; x64) AppleWebKit/537.36 (KHTML, like Gecko) Chrome/119.0.0.0 Safari/537.36" etag="82I16rOvzm93-Cw52LVi" version="22.1.3" type="device">
  <diagram name="1 oldal" id="s9Mcpa4K2l946EQy9fjX">
    <mxGraphModel dx="2856" dy="904" grid="1" gridSize="10" guides="1" tooltips="1" connect="1" arrows="1" fold="1" page="1" pageScale="1" pageWidth="1169" pageHeight="827" math="0" shadow="0">
      <root>
        <mxCell id="0" />
        <mxCell id="1" parent="0" />
        <mxCell id="5I7TPQn2OmLXqwLl5cTM-29" value="" style="rounded=0;whiteSpace=wrap;html=1;fillColor=#ffe6cc;strokeColor=#000000;" parent="1" vertex="1">
          <mxGeometry x="-60" y="170" width="1040" height="630" as="geometry" />
        </mxCell>
        <mxCell id="5I7TPQn2OmLXqwLl5cTM-6" style="edgeStyle=orthogonalEdgeStyle;rounded=0;orthogonalLoop=1;jettySize=auto;html=1;exitX=0.5;exitY=0.5;exitDx=0;exitDy=0;exitPerimeter=0;entryX=-0.004;entryY=0.511;entryDx=0;entryDy=0;entryPerimeter=0;" parent="1" source="5I7TPQn2OmLXqwLl5cTM-1" target="5I7TPQn2OmLXqwLl5cTM-9" edge="1">
          <mxGeometry relative="1" as="geometry">
            <mxPoint x="119.87" y="450" as="targetPoint" />
          </mxGeometry>
        </mxCell>
        <mxCell id="5I7TPQn2OmLXqwLl5cTM-8" value="HTTP(s) request" style="edgeLabel;html=1;align=center;verticalAlign=middle;resizable=0;points=[];" parent="5I7TPQn2OmLXqwLl5cTM-6" vertex="1" connectable="0">
          <mxGeometry x="0.2575" relative="1" as="geometry">
            <mxPoint x="-138" y="4" as="offset" />
          </mxGeometry>
        </mxCell>
        <mxCell id="5I7TPQn2OmLXqwLl5cTM-1" value="&lt;font style=&quot;font-size: 14px;&quot;&gt;&lt;b&gt;Client&lt;/b&gt;&lt;br&gt;(web browser,&lt;br&gt;phone application etc.)&lt;/font&gt;" style="shape=umlActor;verticalLabelPosition=bottom;verticalAlign=top;html=1;outlineConnect=0;" parent="1" vertex="1">
          <mxGeometry x="-599" y="452" width="30" height="60" as="geometry" />
        </mxCell>
        <mxCell id="G1bNZVENHBoAvyQeoXGI-101" style="edgeStyle=orthogonalEdgeStyle;rounded=0;orthogonalLoop=1;jettySize=auto;html=1;exitX=0;exitY=0;exitDx=120.00000000000001;exitDy=260;exitPerimeter=0;entryX=0;entryY=0.5;entryDx=0;entryDy=0;" parent="1" source="5I7TPQn2OmLXqwLl5cTM-9" target="5I7TPQn2OmLXqwLl5cTM-29" edge="1">
          <mxGeometry relative="1" as="geometry" />
        </mxCell>
        <mxCell id="5I7TPQn2OmLXqwLl5cTM-9" value="&lt;b style=&quot;font-size: 20px;&quot;&gt;API&lt;br&gt;Gateway&lt;/b&gt;" style="shape=cube;whiteSpace=wrap;html=1;boundedLbl=1;backgroundOutline=1;darkOpacity=0.05;darkOpacity2=0.1;fillColor=#dae8fc;strokeColor=#6c8ebf;" parent="1" vertex="1">
          <mxGeometry x="-230" y="226" width="120" height="500" as="geometry" />
        </mxCell>
        <mxCell id="5I7TPQn2OmLXqwLl5cTM-11" value="Event service" style="rounded=0;whiteSpace=wrap;html=1;fillColor=#f0a30a;fontColor=#000000;strokeColor=#BD7000;" parent="1" vertex="1">
          <mxGeometry x="600" y="200" width="120" height="60" as="geometry" />
        </mxCell>
        <mxCell id="5I7TPQn2OmLXqwLl5cTM-12" value="User service" style="rounded=0;whiteSpace=wrap;html=1;fillColor=#f0a30a;fontColor=#000000;strokeColor=#BD7000;" parent="1" vertex="1">
          <mxGeometry x="402.5" y="200" width="120" height="60" as="geometry" />
        </mxCell>
        <mxCell id="5I7TPQn2OmLXqwLl5cTM-13" value="Ticketing service" style="rounded=0;whiteSpace=wrap;html=1;fillColor=#f0a30a;fontColor=#000000;strokeColor=#BD7000;" parent="1" vertex="1">
          <mxGeometry x="197" y="200" width="120" height="60" as="geometry" />
        </mxCell>
        <mxCell id="5I7TPQn2OmLXqwLl5cTM-14" value="Live feed service" style="rounded=0;whiteSpace=wrap;html=1;fillColor=#f0a30a;fontColor=#000000;strokeColor=#BD7000;" parent="1" vertex="1">
          <mxGeometry x="-13" y="200" width="120" height="60" as="geometry" />
        </mxCell>
        <mxCell id="5I7TPQn2OmLXqwLl5cTM-16" value="Recommending service" style="rounded=0;whiteSpace=wrap;html=1;fillColor=#f0a30a;fontColor=#000000;strokeColor=#BD7000;" parent="1" vertex="1">
          <mxGeometry x="802.5" y="200" width="120" height="60" as="geometry" />
        </mxCell>
        <mxCell id="5I7TPQn2OmLXqwLl5cTM-34" value="&lt;font style=&quot;font-size: 30px;&quot;&gt;&lt;b style=&quot;font-size: 30px;&quot;&gt;Processing units&lt;/b&gt;&lt;/font&gt;" style="text;html=1;align=center;verticalAlign=middle;resizable=0;points=[];autosize=1;strokeColor=none;fillColor=none;fontSize=30;" parent="1" vertex="1">
          <mxGeometry x="325" y="120" width="270" height="50" as="geometry" />
        </mxCell>
        <mxCell id="ZkYupQF6wau2qRQoMupU-15" value="Notification service" style="rounded=0;whiteSpace=wrap;html=1;fillColor=#f0a30a;fontColor=#000000;strokeColor=#BD7000;" parent="1" vertex="1">
          <mxGeometry x="1150" y="455" width="120" height="60" as="geometry" />
        </mxCell>
        <mxCell id="ZkYupQF6wau2qRQoMupU-18" value="" style="group" parent="1" vertex="1" connectable="0">
          <mxGeometry x="1110" y="300" width="200" height="60" as="geometry" />
        </mxCell>
        <mxCell id="ZkYupQF6wau2qRQoMupU-19" value="" style="shape=cylinder3;whiteSpace=wrap;html=1;boundedLbl=1;backgroundOutline=1;size=15;rotation=90;fillColor=#1ba1e2;fontColor=#ffffff;strokeColor=#006EAF;" parent="ZkYupQF6wau2qRQoMupU-18" vertex="1">
          <mxGeometry x="70" y="-70" width="60" height="200" as="geometry" />
        </mxCell>
        <mxCell id="ZkYupQF6wau2qRQoMupU-20" value="Message broker" style="text;html=1;align=center;verticalAlign=middle;whiteSpace=wrap;rounded=0;fontStyle=1;fontSize=16;fontColor=#FFFFFF;" parent="ZkYupQF6wau2qRQoMupU-18" vertex="1">
          <mxGeometry x="10" y="5" width="160" height="50" as="geometry" />
        </mxCell>
        <mxCell id="ZkYupQF6wau2qRQoMupU-25" style="edgeStyle=orthogonalEdgeStyle;rounded=0;orthogonalLoop=1;jettySize=auto;html=1;exitX=0.5;exitY=1;exitDx=0;exitDy=0;exitPerimeter=0;entryX=0.5;entryY=0;entryDx=0;entryDy=0;" parent="1" source="ZkYupQF6wau2qRQoMupU-22" target="ZkYupQF6wau2qRQoMupU-24" edge="1">
          <mxGeometry relative="1" as="geometry" />
        </mxCell>
        <mxCell id="ZkYupQF6wau2qRQoMupU-22" value="In-memory DB" style="shape=cylinder3;whiteSpace=wrap;html=1;boundedLbl=1;backgroundOutline=1;size=15;fillColor=#f8cecc;strokeColor=#b85450;" parent="1" vertex="1">
          <mxGeometry x="610" y="310" width="100" height="70" as="geometry" />
        </mxCell>
        <mxCell id="ZkYupQF6wau2qRQoMupU-23" style="edgeStyle=orthogonalEdgeStyle;rounded=0;orthogonalLoop=1;jettySize=auto;html=1;exitX=0.5;exitY=1;exitDx=0;exitDy=0;entryX=0.5;entryY=0;entryDx=0;entryDy=0;entryPerimeter=0;" parent="1" source="5I7TPQn2OmLXqwLl5cTM-11" target="ZkYupQF6wau2qRQoMupU-22" edge="1">
          <mxGeometry relative="1" as="geometry" />
        </mxCell>
        <mxCell id="ZkYupQF6wau2qRQoMupU-24" value="Data&lt;br&gt;Replication&lt;br&gt;Engine" style="whiteSpace=wrap;html=1;fillColor=#d5e8d4;strokeColor=#82b366;" parent="1" vertex="1">
          <mxGeometry x="600" y="414" width="120" height="60" as="geometry" />
        </mxCell>
        <mxCell id="ZkYupQF6wau2qRQoMupU-26" value="Master" style="shape=cylinder3;whiteSpace=wrap;html=1;boundedLbl=1;backgroundOutline=1;size=15;fillColor=#b1ddf0;strokeColor=#10739e;" parent="1" vertex="1">
          <mxGeometry x="610" y="505" width="100" height="110" as="geometry" />
        </mxCell>
        <mxCell id="ZkYupQF6wau2qRQoMupU-27" style="edgeStyle=orthogonalEdgeStyle;rounded=0;orthogonalLoop=1;jettySize=auto;html=1;exitX=0.5;exitY=1;exitDx=0;exitDy=0;entryX=0.5;entryY=0;entryDx=0;entryDy=0;entryPerimeter=0;" parent="1" source="ZkYupQF6wau2qRQoMupU-24" target="ZkYupQF6wau2qRQoMupU-26" edge="1">
          <mxGeometry relative="1" as="geometry" />
        </mxCell>
        <mxCell id="ZkYupQF6wau2qRQoMupU-28" value="Slave 1" style="shape=cylinder3;whiteSpace=wrap;html=1;boundedLbl=1;backgroundOutline=1;size=15;fillColor=#dae8fc;strokeColor=#6c8ebf;" parent="1" vertex="1">
          <mxGeometry x="567.5" y="650" width="50" height="110" as="geometry" />
        </mxCell>
        <mxCell id="ZkYupQF6wau2qRQoMupU-29" value="Slave 2" style="shape=cylinder3;whiteSpace=wrap;html=1;boundedLbl=1;backgroundOutline=1;size=15;fillColor=#dae8fc;strokeColor=#6c8ebf;" parent="1" vertex="1">
          <mxGeometry x="632.5" y="650" width="50" height="110" as="geometry" />
        </mxCell>
        <mxCell id="ZkYupQF6wau2qRQoMupU-30" value="Slave 3" style="shape=cylinder3;whiteSpace=wrap;html=1;boundedLbl=1;backgroundOutline=1;size=15;fillColor=#dae8fc;strokeColor=#6c8ebf;" parent="1" vertex="1">
          <mxGeometry x="702.5" y="650" width="50" height="110" as="geometry" />
        </mxCell>
        <mxCell id="ZkYupQF6wau2qRQoMupU-31" style="edgeStyle=orthogonalEdgeStyle;rounded=0;orthogonalLoop=1;jettySize=auto;html=1;exitX=0.5;exitY=1;exitDx=0;exitDy=0;exitPerimeter=0;entryX=0.5;entryY=0;entryDx=0;entryDy=0;entryPerimeter=0;" parent="1" source="ZkYupQF6wau2qRQoMupU-26" target="ZkYupQF6wau2qRQoMupU-29" edge="1">
          <mxGeometry relative="1" as="geometry" />
        </mxCell>
        <mxCell id="ZkYupQF6wau2qRQoMupU-32" style="edgeStyle=orthogonalEdgeStyle;rounded=0;orthogonalLoop=1;jettySize=auto;html=1;exitX=0.145;exitY=1;exitDx=0;exitDy=-4.35;exitPerimeter=0;entryX=0.5;entryY=0;entryDx=0;entryDy=0;entryPerimeter=0;" parent="1" source="ZkYupQF6wau2qRQoMupU-26" target="ZkYupQF6wau2qRQoMupU-28" edge="1">
          <mxGeometry relative="1" as="geometry" />
        </mxCell>
        <mxCell id="ZkYupQF6wau2qRQoMupU-33" style="edgeStyle=orthogonalEdgeStyle;rounded=0;orthogonalLoop=1;jettySize=auto;html=1;exitX=0.855;exitY=1;exitDx=0;exitDy=-4.35;exitPerimeter=0;entryX=0.5;entryY=0;entryDx=0;entryDy=0;entryPerimeter=0;" parent="1" source="ZkYupQF6wau2qRQoMupU-26" target="ZkYupQF6wau2qRQoMupU-30" edge="1">
          <mxGeometry relative="1" as="geometry" />
        </mxCell>
        <mxCell id="ZkYupQF6wau2qRQoMupU-34" value="In-memory DB" style="shape=cylinder3;whiteSpace=wrap;html=1;boundedLbl=1;backgroundOutline=1;size=15;fillColor=#f8cecc;strokeColor=#b85450;" parent="1" vertex="1">
          <mxGeometry x="812.5" y="310" width="100" height="70" as="geometry" />
        </mxCell>
        <mxCell id="ZkYupQF6wau2qRQoMupU-35" style="edgeStyle=orthogonalEdgeStyle;rounded=0;orthogonalLoop=1;jettySize=auto;html=1;exitX=0.5;exitY=1;exitDx=0;exitDy=0;exitPerimeter=0;entryX=0.5;entryY=0;entryDx=0;entryDy=0;" parent="1" source="ZkYupQF6wau2qRQoMupU-34" target="ZkYupQF6wau2qRQoMupU-36" edge="1">
          <mxGeometry relative="1" as="geometry" />
        </mxCell>
        <mxCell id="ZkYupQF6wau2qRQoMupU-36" value="Data&lt;br&gt;Replication&lt;br&gt;Engine" style="whiteSpace=wrap;html=1;fillColor=#d5e8d4;strokeColor=#82b366;" parent="1" vertex="1">
          <mxGeometry x="802.5" y="414" width="120" height="60" as="geometry" />
        </mxCell>
        <mxCell id="ZkYupQF6wau2qRQoMupU-37" style="edgeStyle=orthogonalEdgeStyle;rounded=0;orthogonalLoop=1;jettySize=auto;html=1;exitX=0.5;exitY=1;exitDx=0;exitDy=0;entryX=0.5;entryY=0;entryDx=0;entryDy=0;entryPerimeter=0;" parent="1" source="ZkYupQF6wau2qRQoMupU-36" target="ZkYupQF6wau2qRQoMupU-38" edge="1">
          <mxGeometry relative="1" as="geometry" />
        </mxCell>
        <mxCell id="ZkYupQF6wau2qRQoMupU-38" value="Master" style="shape=cylinder3;whiteSpace=wrap;html=1;boundedLbl=1;backgroundOutline=1;size=15;fillColor=#b1ddf0;strokeColor=#10739e;" parent="1" vertex="1">
          <mxGeometry x="812.5" y="505" width="100" height="110" as="geometry" />
        </mxCell>
        <mxCell id="ZkYupQF6wau2qRQoMupU-39" style="edgeStyle=orthogonalEdgeStyle;rounded=0;orthogonalLoop=1;jettySize=auto;html=1;exitX=0.145;exitY=1;exitDx=0;exitDy=-4.35;exitPerimeter=0;entryX=0.5;entryY=0;entryDx=0;entryDy=0;entryPerimeter=0;" parent="1" source="ZkYupQF6wau2qRQoMupU-38" target="ZkYupQF6wau2qRQoMupU-44" edge="1">
          <mxGeometry relative="1" as="geometry" />
        </mxCell>
        <mxCell id="ZkYupQF6wau2qRQoMupU-40" style="edgeStyle=orthogonalEdgeStyle;rounded=0;orthogonalLoop=1;jettySize=auto;html=1;exitX=0.5;exitY=1;exitDx=0;exitDy=0;exitPerimeter=0;entryX=0.5;entryY=0;entryDx=0;entryDy=0;entryPerimeter=0;" parent="1" source="ZkYupQF6wau2qRQoMupU-38" target="ZkYupQF6wau2qRQoMupU-43" edge="1">
          <mxGeometry relative="1" as="geometry" />
        </mxCell>
        <mxCell id="ZkYupQF6wau2qRQoMupU-41" style="edgeStyle=orthogonalEdgeStyle;rounded=0;orthogonalLoop=1;jettySize=auto;html=1;exitX=0.855;exitY=1;exitDx=0;exitDy=-4.35;exitPerimeter=0;entryX=0.5;entryY=0;entryDx=0;entryDy=0;entryPerimeter=0;" parent="1" source="ZkYupQF6wau2qRQoMupU-38" target="ZkYupQF6wau2qRQoMupU-42" edge="1">
          <mxGeometry relative="1" as="geometry" />
        </mxCell>
        <mxCell id="ZkYupQF6wau2qRQoMupU-42" value="Slave 3" style="shape=cylinder3;whiteSpace=wrap;html=1;boundedLbl=1;backgroundOutline=1;size=15;fillColor=#dae8fc;strokeColor=#6c8ebf;" parent="1" vertex="1">
          <mxGeometry x="905" y="650" width="50" height="110" as="geometry" />
        </mxCell>
        <mxCell id="ZkYupQF6wau2qRQoMupU-43" value="Slave 2" style="shape=cylinder3;whiteSpace=wrap;html=1;boundedLbl=1;backgroundOutline=1;size=15;fillColor=#dae8fc;strokeColor=#6c8ebf;" parent="1" vertex="1">
          <mxGeometry x="835" y="650" width="50" height="110" as="geometry" />
        </mxCell>
        <mxCell id="ZkYupQF6wau2qRQoMupU-44" value="Slave 1" style="shape=cylinder3;whiteSpace=wrap;html=1;boundedLbl=1;backgroundOutline=1;size=15;fillColor=#dae8fc;strokeColor=#6c8ebf;" parent="1" vertex="1">
          <mxGeometry x="770" y="650" width="50" height="110" as="geometry" />
        </mxCell>
        <mxCell id="ZkYupQF6wau2qRQoMupU-45" value="In-memory DB" style="shape=cylinder3;whiteSpace=wrap;html=1;boundedLbl=1;backgroundOutline=1;size=15;fillColor=#f8cecc;strokeColor=#b85450;" parent="1" vertex="1">
          <mxGeometry x="412.5" y="310" width="100" height="70" as="geometry" />
        </mxCell>
        <mxCell id="ZkYupQF6wau2qRQoMupU-46" style="edgeStyle=orthogonalEdgeStyle;rounded=0;orthogonalLoop=1;jettySize=auto;html=1;exitX=0.5;exitY=1;exitDx=0;exitDy=0;exitPerimeter=0;entryX=0.5;entryY=0;entryDx=0;entryDy=0;" parent="1" source="ZkYupQF6wau2qRQoMupU-45" target="ZkYupQF6wau2qRQoMupU-47" edge="1">
          <mxGeometry relative="1" as="geometry" />
        </mxCell>
        <mxCell id="ZkYupQF6wau2qRQoMupU-47" value="Data&lt;br&gt;Replication&lt;br&gt;Engine" style="whiteSpace=wrap;html=1;fillColor=#d5e8d4;strokeColor=#82b366;" parent="1" vertex="1">
          <mxGeometry x="402.5" y="414" width="120" height="60" as="geometry" />
        </mxCell>
        <mxCell id="ZkYupQF6wau2qRQoMupU-48" style="edgeStyle=orthogonalEdgeStyle;rounded=0;orthogonalLoop=1;jettySize=auto;html=1;exitX=0.5;exitY=1;exitDx=0;exitDy=0;entryX=0.5;entryY=0;entryDx=0;entryDy=0;entryPerimeter=0;" parent="1" source="ZkYupQF6wau2qRQoMupU-47" target="ZkYupQF6wau2qRQoMupU-49" edge="1">
          <mxGeometry relative="1" as="geometry" />
        </mxCell>
        <mxCell id="ZkYupQF6wau2qRQoMupU-49" value="Master" style="shape=cylinder3;whiteSpace=wrap;html=1;boundedLbl=1;backgroundOutline=1;size=15;fillColor=#b1ddf0;strokeColor=#10739e;" parent="1" vertex="1">
          <mxGeometry x="412.5" y="505" width="100" height="110" as="geometry" />
        </mxCell>
        <mxCell id="ZkYupQF6wau2qRQoMupU-50" style="edgeStyle=orthogonalEdgeStyle;rounded=0;orthogonalLoop=1;jettySize=auto;html=1;exitX=0.145;exitY=1;exitDx=0;exitDy=-4.35;exitPerimeter=0;entryX=0.5;entryY=0;entryDx=0;entryDy=0;entryPerimeter=0;" parent="1" source="ZkYupQF6wau2qRQoMupU-49" target="ZkYupQF6wau2qRQoMupU-55" edge="1">
          <mxGeometry relative="1" as="geometry" />
        </mxCell>
        <mxCell id="ZkYupQF6wau2qRQoMupU-51" style="edgeStyle=orthogonalEdgeStyle;rounded=0;orthogonalLoop=1;jettySize=auto;html=1;exitX=0.5;exitY=1;exitDx=0;exitDy=0;exitPerimeter=0;entryX=0.5;entryY=0;entryDx=0;entryDy=0;entryPerimeter=0;" parent="1" source="ZkYupQF6wau2qRQoMupU-49" target="ZkYupQF6wau2qRQoMupU-54" edge="1">
          <mxGeometry relative="1" as="geometry" />
        </mxCell>
        <mxCell id="ZkYupQF6wau2qRQoMupU-52" style="edgeStyle=orthogonalEdgeStyle;rounded=0;orthogonalLoop=1;jettySize=auto;html=1;exitX=0.855;exitY=1;exitDx=0;exitDy=-4.35;exitPerimeter=0;entryX=0.5;entryY=0;entryDx=0;entryDy=0;entryPerimeter=0;" parent="1" source="ZkYupQF6wau2qRQoMupU-49" target="ZkYupQF6wau2qRQoMupU-53" edge="1">
          <mxGeometry relative="1" as="geometry" />
        </mxCell>
        <mxCell id="ZkYupQF6wau2qRQoMupU-53" value="Slave 3" style="shape=cylinder3;whiteSpace=wrap;html=1;boundedLbl=1;backgroundOutline=1;size=15;fillColor=#dae8fc;strokeColor=#6c8ebf;" parent="1" vertex="1">
          <mxGeometry x="505" y="650" width="50" height="110" as="geometry" />
        </mxCell>
        <mxCell id="ZkYupQF6wau2qRQoMupU-54" value="Slave 2" style="shape=cylinder3;whiteSpace=wrap;html=1;boundedLbl=1;backgroundOutline=1;size=15;fillColor=#dae8fc;strokeColor=#6c8ebf;" parent="1" vertex="1">
          <mxGeometry x="435" y="650" width="50" height="110" as="geometry" />
        </mxCell>
        <mxCell id="ZkYupQF6wau2qRQoMupU-55" value="Slave 1" style="shape=cylinder3;whiteSpace=wrap;html=1;boundedLbl=1;backgroundOutline=1;size=15;fillColor=#dae8fc;strokeColor=#6c8ebf;" parent="1" vertex="1">
          <mxGeometry x="370" y="650" width="50" height="110" as="geometry" />
        </mxCell>
        <mxCell id="ZkYupQF6wau2qRQoMupU-56" value="In-memory DB" style="shape=cylinder3;whiteSpace=wrap;html=1;boundedLbl=1;backgroundOutline=1;size=15;fillColor=#f8cecc;strokeColor=#b85450;" parent="1" vertex="1">
          <mxGeometry x="207.5" y="310" width="100" height="70" as="geometry" />
        </mxCell>
        <mxCell id="ZkYupQF6wau2qRQoMupU-57" style="edgeStyle=orthogonalEdgeStyle;rounded=0;orthogonalLoop=1;jettySize=auto;html=1;exitX=0.5;exitY=1;exitDx=0;exitDy=0;exitPerimeter=0;entryX=0.5;entryY=0;entryDx=0;entryDy=0;" parent="1" source="ZkYupQF6wau2qRQoMupU-56" target="ZkYupQF6wau2qRQoMupU-58" edge="1">
          <mxGeometry relative="1" as="geometry" />
        </mxCell>
        <mxCell id="ZkYupQF6wau2qRQoMupU-58" value="Data&lt;br&gt;Replication&lt;br&gt;Engine" style="whiteSpace=wrap;html=1;fillColor=#d5e8d4;strokeColor=#82b366;" parent="1" vertex="1">
          <mxGeometry x="197.5" y="414" width="120" height="60" as="geometry" />
        </mxCell>
        <mxCell id="ZkYupQF6wau2qRQoMupU-59" style="edgeStyle=orthogonalEdgeStyle;rounded=0;orthogonalLoop=1;jettySize=auto;html=1;exitX=0.5;exitY=1;exitDx=0;exitDy=0;entryX=0.5;entryY=0;entryDx=0;entryDy=0;entryPerimeter=0;" parent="1" source="ZkYupQF6wau2qRQoMupU-58" target="ZkYupQF6wau2qRQoMupU-60" edge="1">
          <mxGeometry relative="1" as="geometry" />
        </mxCell>
        <mxCell id="ZkYupQF6wau2qRQoMupU-60" value="Master" style="shape=cylinder3;whiteSpace=wrap;html=1;boundedLbl=1;backgroundOutline=1;size=15;fillColor=#b1ddf0;strokeColor=#10739e;" parent="1" vertex="1">
          <mxGeometry x="207.5" y="505" width="100" height="110" as="geometry" />
        </mxCell>
        <mxCell id="ZkYupQF6wau2qRQoMupU-61" style="edgeStyle=orthogonalEdgeStyle;rounded=0;orthogonalLoop=1;jettySize=auto;html=1;exitX=0.145;exitY=1;exitDx=0;exitDy=-4.35;exitPerimeter=0;entryX=0.5;entryY=0;entryDx=0;entryDy=0;entryPerimeter=0;" parent="1" source="ZkYupQF6wau2qRQoMupU-60" target="ZkYupQF6wau2qRQoMupU-66" edge="1">
          <mxGeometry relative="1" as="geometry" />
        </mxCell>
        <mxCell id="ZkYupQF6wau2qRQoMupU-62" style="edgeStyle=orthogonalEdgeStyle;rounded=0;orthogonalLoop=1;jettySize=auto;html=1;exitX=0.5;exitY=1;exitDx=0;exitDy=0;exitPerimeter=0;entryX=0.5;entryY=0;entryDx=0;entryDy=0;entryPerimeter=0;" parent="1" source="ZkYupQF6wau2qRQoMupU-60" target="ZkYupQF6wau2qRQoMupU-65" edge="1">
          <mxGeometry relative="1" as="geometry" />
        </mxCell>
        <mxCell id="ZkYupQF6wau2qRQoMupU-63" style="edgeStyle=orthogonalEdgeStyle;rounded=0;orthogonalLoop=1;jettySize=auto;html=1;exitX=0.855;exitY=1;exitDx=0;exitDy=-4.35;exitPerimeter=0;entryX=0.5;entryY=0;entryDx=0;entryDy=0;entryPerimeter=0;" parent="1" source="ZkYupQF6wau2qRQoMupU-60" target="ZkYupQF6wau2qRQoMupU-64" edge="1">
          <mxGeometry relative="1" as="geometry" />
        </mxCell>
        <mxCell id="ZkYupQF6wau2qRQoMupU-64" value="Slave 3" style="shape=cylinder3;whiteSpace=wrap;html=1;boundedLbl=1;backgroundOutline=1;size=15;fillColor=#dae8fc;strokeColor=#6c8ebf;" parent="1" vertex="1">
          <mxGeometry x="300" y="650" width="50" height="110" as="geometry" />
        </mxCell>
        <mxCell id="ZkYupQF6wau2qRQoMupU-65" value="Slave 2" style="shape=cylinder3;whiteSpace=wrap;html=1;boundedLbl=1;backgroundOutline=1;size=15;fillColor=#dae8fc;strokeColor=#6c8ebf;" parent="1" vertex="1">
          <mxGeometry x="230" y="650" width="50" height="110" as="geometry" />
        </mxCell>
        <mxCell id="ZkYupQF6wau2qRQoMupU-66" value="Slave 1" style="shape=cylinder3;whiteSpace=wrap;html=1;boundedLbl=1;backgroundOutline=1;size=15;fillColor=#dae8fc;strokeColor=#6c8ebf;" parent="1" vertex="1">
          <mxGeometry x="165" y="650" width="50" height="110" as="geometry" />
        </mxCell>
        <mxCell id="ZkYupQF6wau2qRQoMupU-67" value="In-memory DB" style="shape=cylinder3;whiteSpace=wrap;html=1;boundedLbl=1;backgroundOutline=1;size=15;fillColor=#f8cecc;strokeColor=#b85450;" parent="1" vertex="1">
          <mxGeometry x="-2.5" y="310" width="100" height="70" as="geometry" />
        </mxCell>
        <mxCell id="ZkYupQF6wau2qRQoMupU-68" style="edgeStyle=orthogonalEdgeStyle;rounded=0;orthogonalLoop=1;jettySize=auto;html=1;exitX=0.5;exitY=1;exitDx=0;exitDy=0;exitPerimeter=0;entryX=0.5;entryY=0;entryDx=0;entryDy=0;" parent="1" source="ZkYupQF6wau2qRQoMupU-67" target="ZkYupQF6wau2qRQoMupU-69" edge="1">
          <mxGeometry relative="1" as="geometry" />
        </mxCell>
        <mxCell id="ZkYupQF6wau2qRQoMupU-69" value="Data&lt;br&gt;Replication&lt;br&gt;Engine" style="whiteSpace=wrap;html=1;fillColor=#d5e8d4;strokeColor=#82b366;" parent="1" vertex="1">
          <mxGeometry x="-12.5" y="414" width="120" height="60" as="geometry" />
        </mxCell>
        <mxCell id="ZkYupQF6wau2qRQoMupU-70" style="edgeStyle=orthogonalEdgeStyle;rounded=0;orthogonalLoop=1;jettySize=auto;html=1;exitX=0.5;exitY=1;exitDx=0;exitDy=0;entryX=0.5;entryY=0;entryDx=0;entryDy=0;entryPerimeter=0;" parent="1" source="ZkYupQF6wau2qRQoMupU-69" target="ZkYupQF6wau2qRQoMupU-71" edge="1">
          <mxGeometry relative="1" as="geometry" />
        </mxCell>
        <mxCell id="ZkYupQF6wau2qRQoMupU-71" value="Master" style="shape=cylinder3;whiteSpace=wrap;html=1;boundedLbl=1;backgroundOutline=1;size=15;fillColor=#b1ddf0;strokeColor=#10739e;" parent="1" vertex="1">
          <mxGeometry x="-2.5" y="505" width="100" height="110" as="geometry" />
        </mxCell>
        <mxCell id="ZkYupQF6wau2qRQoMupU-72" style="edgeStyle=orthogonalEdgeStyle;rounded=0;orthogonalLoop=1;jettySize=auto;html=1;exitX=0.145;exitY=1;exitDx=0;exitDy=-4.35;exitPerimeter=0;entryX=0.5;entryY=0;entryDx=0;entryDy=0;entryPerimeter=0;" parent="1" source="ZkYupQF6wau2qRQoMupU-71" target="ZkYupQF6wau2qRQoMupU-77" edge="1">
          <mxGeometry relative="1" as="geometry" />
        </mxCell>
        <mxCell id="ZkYupQF6wau2qRQoMupU-73" style="edgeStyle=orthogonalEdgeStyle;rounded=0;orthogonalLoop=1;jettySize=auto;html=1;exitX=0.5;exitY=1;exitDx=0;exitDy=0;exitPerimeter=0;entryX=0.5;entryY=0;entryDx=0;entryDy=0;entryPerimeter=0;" parent="1" source="ZkYupQF6wau2qRQoMupU-71" target="ZkYupQF6wau2qRQoMupU-76" edge="1">
          <mxGeometry relative="1" as="geometry" />
        </mxCell>
        <mxCell id="ZkYupQF6wau2qRQoMupU-74" style="edgeStyle=orthogonalEdgeStyle;rounded=0;orthogonalLoop=1;jettySize=auto;html=1;exitX=0.855;exitY=1;exitDx=0;exitDy=-4.35;exitPerimeter=0;entryX=0.5;entryY=0;entryDx=0;entryDy=0;entryPerimeter=0;" parent="1" source="ZkYupQF6wau2qRQoMupU-71" target="ZkYupQF6wau2qRQoMupU-75" edge="1">
          <mxGeometry relative="1" as="geometry" />
        </mxCell>
        <mxCell id="ZkYupQF6wau2qRQoMupU-75" value="Slave 3" style="shape=cylinder3;whiteSpace=wrap;html=1;boundedLbl=1;backgroundOutline=1;size=15;fillColor=#dae8fc;strokeColor=#6c8ebf;" parent="1" vertex="1">
          <mxGeometry x="90" y="650" width="50" height="110" as="geometry" />
        </mxCell>
        <mxCell id="ZkYupQF6wau2qRQoMupU-76" value="Slave 2" style="shape=cylinder3;whiteSpace=wrap;html=1;boundedLbl=1;backgroundOutline=1;size=15;fillColor=#dae8fc;strokeColor=#6c8ebf;" parent="1" vertex="1">
          <mxGeometry x="20" y="650" width="50" height="110" as="geometry" />
        </mxCell>
        <mxCell id="ZkYupQF6wau2qRQoMupU-77" value="Slave 1" style="shape=cylinder3;whiteSpace=wrap;html=1;boundedLbl=1;backgroundOutline=1;size=15;fillColor=#dae8fc;strokeColor=#6c8ebf;" parent="1" vertex="1">
          <mxGeometry x="-45" y="650" width="50" height="110" as="geometry" />
        </mxCell>
        <mxCell id="ZkYupQF6wau2qRQoMupU-78" style="edgeStyle=orthogonalEdgeStyle;rounded=0;orthogonalLoop=1;jettySize=auto;html=1;exitX=0.5;exitY=1;exitDx=0;exitDy=0;entryX=0.5;entryY=0;entryDx=0;entryDy=0;entryPerimeter=0;" parent="1" source="5I7TPQn2OmLXqwLl5cTM-16" target="ZkYupQF6wau2qRQoMupU-34" edge="1">
          <mxGeometry relative="1" as="geometry" />
        </mxCell>
        <mxCell id="ZkYupQF6wau2qRQoMupU-79" style="edgeStyle=orthogonalEdgeStyle;rounded=0;orthogonalLoop=1;jettySize=auto;html=1;exitX=0.5;exitY=1;exitDx=0;exitDy=0;entryX=0.5;entryY=0;entryDx=0;entryDy=0;entryPerimeter=0;" parent="1" source="5I7TPQn2OmLXqwLl5cTM-12" target="ZkYupQF6wau2qRQoMupU-45" edge="1">
          <mxGeometry relative="1" as="geometry" />
        </mxCell>
        <mxCell id="ZkYupQF6wau2qRQoMupU-80" style="edgeStyle=orthogonalEdgeStyle;rounded=0;orthogonalLoop=1;jettySize=auto;html=1;exitX=0.5;exitY=1;exitDx=0;exitDy=0;entryX=0.5;entryY=0;entryDx=0;entryDy=0;entryPerimeter=0;" parent="1" source="5I7TPQn2OmLXqwLl5cTM-13" target="ZkYupQF6wau2qRQoMupU-56" edge="1">
          <mxGeometry relative="1" as="geometry" />
        </mxCell>
        <mxCell id="ZkYupQF6wau2qRQoMupU-81" style="edgeStyle=orthogonalEdgeStyle;rounded=0;orthogonalLoop=1;jettySize=auto;html=1;exitX=0.5;exitY=1;exitDx=0;exitDy=0;entryX=0.5;entryY=0;entryDx=0;entryDy=0;entryPerimeter=0;" parent="1" source="5I7TPQn2OmLXqwLl5cTM-14" target="ZkYupQF6wau2qRQoMupU-67" edge="1">
          <mxGeometry relative="1" as="geometry" />
        </mxCell>
        <mxCell id="ZkYupQF6wau2qRQoMupU-84" style="edgeStyle=orthogonalEdgeStyle;rounded=0;orthogonalLoop=1;jettySize=auto;html=1;exitX=1;exitY=0.25;exitDx=0;exitDy=0;entryX=0.5;entryY=1;entryDx=0;entryDy=0;entryPerimeter=0;" parent="1" source="5I7TPQn2OmLXqwLl5cTM-29" target="ZkYupQF6wau2qRQoMupU-19" edge="1">
          <mxGeometry relative="1" as="geometry" />
        </mxCell>
        <mxCell id="ZkYupQF6wau2qRQoMupU-85" value="Sends notification&lt;br&gt;event to" style="edgeLabel;html=1;align=center;verticalAlign=middle;resizable=0;points=[];" parent="ZkYupQF6wau2qRQoMupU-84" vertex="1" connectable="0">
          <mxGeometry x="0.1566" y="2" relative="1" as="geometry">
            <mxPoint x="-11" as="offset" />
          </mxGeometry>
        </mxCell>
        <mxCell id="ZkYupQF6wau2qRQoMupU-87" style="edgeStyle=orthogonalEdgeStyle;rounded=0;orthogonalLoop=1;jettySize=auto;html=1;exitX=0.5;exitY=0;exitDx=0;exitDy=0;entryX=1;entryY=0.5;entryDx=0;entryDy=0;entryPerimeter=0;" parent="1" source="ZkYupQF6wau2qRQoMupU-15" target="ZkYupQF6wau2qRQoMupU-19" edge="1">
          <mxGeometry relative="1" as="geometry">
            <mxPoint x="1210" y="453.75" as="sourcePoint" />
          </mxGeometry>
        </mxCell>
        <mxCell id="ZkYupQF6wau2qRQoMupU-88" value="Listents for notification&lt;br&gt;event from" style="edgeLabel;html=1;align=center;verticalAlign=middle;resizable=0;points=[];" parent="ZkYupQF6wau2qRQoMupU-87" vertex="1" connectable="0">
          <mxGeometry x="0.0078" relative="1" as="geometry">
            <mxPoint as="offset" />
          </mxGeometry>
        </mxCell>
        <mxCell id="G1bNZVENHBoAvyQeoXGI-85" style="edgeStyle=orthogonalEdgeStyle;rounded=0;orthogonalLoop=1;jettySize=auto;html=1;exitX=1;exitY=0.5;exitDx=0;exitDy=0;entryX=0;entryY=0.5;entryDx=0;entryDy=0;entryPerimeter=0;" parent="1" source="5I7TPQn2OmLXqwLl5cTM-11" target="ZkYupQF6wau2qRQoMupU-34" edge="1">
          <mxGeometry relative="1" as="geometry" />
        </mxCell>
        <mxCell id="G1bNZVENHBoAvyQeoXGI-86" style="edgeStyle=orthogonalEdgeStyle;rounded=0;orthogonalLoop=1;jettySize=auto;html=1;exitX=0;exitY=0.5;exitDx=0;exitDy=0;entryX=1;entryY=0.5;entryDx=0;entryDy=0;entryPerimeter=0;" parent="1" source="5I7TPQn2OmLXqwLl5cTM-11" target="ZkYupQF6wau2qRQoMupU-45" edge="1">
          <mxGeometry relative="1" as="geometry" />
        </mxCell>
        <mxCell id="G1bNZVENHBoAvyQeoXGI-87" style="edgeStyle=orthogonalEdgeStyle;rounded=0;orthogonalLoop=1;jettySize=auto;html=1;exitX=0;exitY=0.5;exitDx=0;exitDy=0;entryX=1;entryY=0.5;entryDx=0;entryDy=0;entryPerimeter=0;" parent="1" source="5I7TPQn2OmLXqwLl5cTM-12" target="ZkYupQF6wau2qRQoMupU-56" edge="1">
          <mxGeometry relative="1" as="geometry" />
        </mxCell>
        <mxCell id="G1bNZVENHBoAvyQeoXGI-90" style="edgeStyle=orthogonalEdgeStyle;rounded=0;orthogonalLoop=1;jettySize=auto;html=1;exitX=0.25;exitY=1;exitDx=0;exitDy=0;entryX=1;entryY=0;entryDx=0;entryDy=45;entryPerimeter=0;" parent="1" source="5I7TPQn2OmLXqwLl5cTM-16" target="ZkYupQF6wau2qRQoMupU-45" edge="1">
          <mxGeometry relative="1" as="geometry">
            <Array as="points">
              <mxPoint x="833" y="290" />
              <mxPoint x="570" y="290" />
              <mxPoint x="570" y="355" />
            </Array>
          </mxGeometry>
        </mxCell>
        <mxCell id="G1bNZVENHBoAvyQeoXGI-91" style="edgeStyle=orthogonalEdgeStyle;rounded=0;orthogonalLoop=1;jettySize=auto;html=1;exitX=0.25;exitY=1;exitDx=0;exitDy=0;entryX=1;entryY=0.5;entryDx=0;entryDy=0;entryPerimeter=0;" parent="1" source="5I7TPQn2OmLXqwLl5cTM-12" target="ZkYupQF6wau2qRQoMupU-67" edge="1">
          <mxGeometry relative="1" as="geometry">
            <Array as="points">
              <mxPoint x="433" y="280" />
              <mxPoint x="150" y="280" />
              <mxPoint x="150" y="345" />
            </Array>
          </mxGeometry>
        </mxCell>
        <mxCell id="G1bNZVENHBoAvyQeoXGI-95" value="" style="endArrow=classic;startArrow=classic;html=1;rounded=0;exitX=1;exitY=0.5;exitDx=0;exitDy=0;entryX=0;entryY=0.5;entryDx=0;entryDy=0;" parent="1" source="ZkYupQF6wau2qRQoMupU-69" target="ZkYupQF6wau2qRQoMupU-58" edge="1">
          <mxGeometry width="50" height="50" relative="1" as="geometry">
            <mxPoint x="200" y="510" as="sourcePoint" />
            <mxPoint x="250" y="460" as="targetPoint" />
          </mxGeometry>
        </mxCell>
        <mxCell id="G1bNZVENHBoAvyQeoXGI-96" value="" style="endArrow=classic;startArrow=classic;html=1;rounded=0;exitX=1;exitY=0.5;exitDx=0;exitDy=0;entryX=0;entryY=0.5;entryDx=0;entryDy=0;" parent="1" target="ZkYupQF6wau2qRQoMupU-47" edge="1">
          <mxGeometry width="50" height="50" relative="1" as="geometry">
            <mxPoint x="317.5" y="443.7" as="sourcePoint" />
            <mxPoint x="400" y="444" as="targetPoint" />
          </mxGeometry>
        </mxCell>
        <mxCell id="G1bNZVENHBoAvyQeoXGI-98" value="" style="endArrow=classic;startArrow=classic;html=1;rounded=0;exitX=1;exitY=0.5;exitDx=0;exitDy=0;" parent="1" edge="1">
          <mxGeometry width="50" height="50" relative="1" as="geometry">
            <mxPoint x="522.5" y="443.78999999999996" as="sourcePoint" />
            <mxPoint x="600" y="444" as="targetPoint" />
          </mxGeometry>
        </mxCell>
        <mxCell id="G1bNZVENHBoAvyQeoXGI-100" value="" style="endArrow=classic;startArrow=classic;html=1;rounded=0;exitX=1;exitY=0.5;exitDx=0;exitDy=0;entryX=0;entryY=0.5;entryDx=0;entryDy=0;" parent="1" target="ZkYupQF6wau2qRQoMupU-36" edge="1">
          <mxGeometry width="50" height="50" relative="1" as="geometry">
            <mxPoint x="720" y="443.78999999999996" as="sourcePoint" />
            <mxPoint x="797.5" y="444" as="targetPoint" />
          </mxGeometry>
        </mxCell>
        <mxCell id="hIqhhaTuOUB1RBvkDhC1-3" value="Load&lt;br&gt;balancer" style="rounded=0;whiteSpace=wrap;html=1;fillColor=#bac8d3;strokeColor=#23445d;" parent="1" vertex="1">
          <mxGeometry x="-430" y="452" width="120" height="60" as="geometry" />
        </mxCell>
      </root>
    </mxGraphModel>
  </diagram>
</mxfile>
